<?xml version="1.0" encoding="UTF-8"?>
<svg width="30px" height="32px" viewBox="0 0 30 32" version="1.1" xmlns="http://www.w3.org/2000/svg" xmlns:xlink="http://www.w3.org/1999/xlink">
    <!-- Generator: Sketch 41 (35326) - http://www.bohemiancoding.com/sketch -->
    <title>calendar</title>
    <desc>Created with Sketch.</desc>
    <defs></defs>
    <g id="Page-1" stroke="none" stroke-width="1" fill="none" fill-rule="evenodd">
        <g id="calendar" fill="#777777">
            <path d="M10,12 L14,12 L14,16 L10,16 L10,12 Z M16,12 L20,12 L20,16 L16,16 L16,12 Z M22,12 L26,12 L26,16 L22,16 L22,12 Z M4,24 L8,24 L8,28 L4,28 L4,24 Z M10,24 L14,24 L14,28 L10,28 L10,24 Z M16,24 L20,24 L20,28 L16,28 L16,24 Z M10,18 L14,18 L14,22 L10,22 L10,18 Z M16,18 L20,18 L20,22 L16,22 L16,18 Z M22,18 L26,18 L26,22 L22,22 L22,18 Z M4,18 L8,18 L8,22 L4,22 L4,18 Z M26,0 L26,2 L22,2 L22,0 L8,0 L8,2 L4,2 L4,0 L0,0 L0,32 L30,32 L30,0 L26,0 Z M28,30 L2,30 L2,8 L28,8 L28,30 Z" id="Shape"></path>
        </g>
    </g>
</svg>