<?xml version="1.0" encoding="UTF-8"?>
<svg width="32px" height="26px" viewBox="0 0 32 26" version="1.1" xmlns="http://www.w3.org/2000/svg" xmlns:xlink="http://www.w3.org/1999/xlink">
    <!-- Generator: Sketch 41 (35326) - http://www.bohemiancoding.com/sketch -->
    <title>envelop</title>
    <desc>Created with Sketch.</desc>
    <defs></defs>
    <g id="Page-1" stroke="none" stroke-width="1" fill="none" fill-rule="evenodd">
        <g id="envelop" fill="#777777">
            <path d="M29,0 L3,0 C1.35,0 0,1.35 0,3 L0,23 C0,24.65 1.35,26 3,26 L29,26 C30.65,26 32,24.65 32,23 L32,3 C32,1.35 30.65,0 29,0 Z M12.461,13.199 L4,19.789 L4,4.113 L12.461,13.199 Z M5.512,4 L26.488,4 L16,11.875 L5.512,4 L5.512,4 Z M12.79,13.553 L16,17 L19.21,13.553 L25.79,22 L6.211,22 L12.791,13.553 L12.79,13.553 Z M19.539,13.199 L28,4.113 L28,19.789 L19.539,13.199 Z" id="Shape"></path>
        </g>
    </g>
</svg>