<?xml version="1.0" encoding="UTF-8"?>
<svg width="30px" height="30px" viewBox="0 0 30 30" version="1.1" xmlns="http://www.w3.org/2000/svg" xmlns:xlink="http://www.w3.org/1999/xlink">
    <!-- Generator: Sketch 41 (35326) - http://www.bohemiancoding.com/sketch -->
    <title>phone</title>
    <desc>Created with Sketch.</desc>
    <defs></defs>
    <g id="Page-1" stroke="none" stroke-width="1" fill="none" fill-rule="evenodd">
        <g id="phone" fill="#777777">
            <path d="M22,18 C20,20 20,22 18,22 C16,22 14,20 12,18 C10,16 8,14 8,12 C8,10 10,10 12,8 C14,6 8,0 6,0 C4,0 0,6 0,6 C0,10 4.109,18.109 8,22 C11.891,25.891 20,30 24,30 C24,30 30,26 30,24 C30,22 24,16 22,18 Z" id="Shape"></path>
        </g>
    </g>
</svg>