<?xml version="1.0" encoding="UTF-8"?>
<svg width="65px" height="56px" viewBox="0 0 65 56" version="1.1" xmlns="http://www.w3.org/2000/svg" xmlns:xlink="http://www.w3.org/1999/xlink">
    <!-- Generator: Sketch 41 (35326) - http://www.bohemiancoding.com/sketch -->
    <title>Slice</title>
    <desc>Created with Sketch.</desc>
    <defs></defs>
    <g id="Page-1" stroke="none" stroke-width="1" fill="none" fill-rule="evenodd" opacity="0.0930140399">
        <g id="Group-3" transform="translate(9.000000, 7.000000)" fill="#000000">
            <g id="bubble" transform="translate(30.719413, 25.705653)">
                <path d="M7.12334224,7.90849857e-16 C11.0576532,7.90849857e-16 14.2466845,2.59111574 14.2466845,5.78771557 C14.2466845,8.9843154 11.0576532,11.5754311 7.12334224,11.5754311 C6.74535989,11.5754311 6.37450089,11.5513899 6.01254606,11.5050881 C4.48236311,13.0352711 2.65611624,13.3095198 0.89041778,13.3500338 L0.89041778,12.9756131 C1.84405522,12.508589 2.67125334,11.6573496 2.67125334,10.6850134 C2.67125334,10.5492247 2.66056833,10.4161072 2.64097914,10.285661 C1.02976816,9.2247282 0,7.60372263 0,5.78771557 C0,2.59111574 3.18903128,0 7.12334224,0 L7.12334224,7.90849857e-16 Z" id="Shape"></path>
            </g>
            <g id="cart" transform="translate(0.000000, 26.000000)">
                <g id="Group">
                    <path d="M5.34250668,12.02064 C5.34250668,12.7583512 4.74459114,13.3562667 4.00688001,13.3562667 C3.26916888,13.3562667 2.67125334,12.7583512 2.67125334,12.02064 C2.67125334,11.2829289 3.26916888,10.6850134 4.00688001,10.6850134 C4.74459114,10.6850134 5.34250668,11.2829289 5.34250668,12.02064 Z" id="Shape"></path>
                    <path d="M14.2466845,12.02064 C14.2466845,12.7583512 13.6487689,13.3562667 12.9110578,13.3562667 C12.1733467,13.3562667 11.5754311,12.7583512 11.5754311,12.02064 C11.5754311,11.2829289 12.1733467,10.6850134 12.9110578,10.6850134 C13.6487689,10.6850134 14.2466845,11.2829289 14.2466845,12.02064 Z" id="Shape"></path>
                    <path d="M14.2466845,6.23292446 L14.2466845,0.89041778 L3.56167112,0.89041778 C3.56167112,0.398461957 3.16320916,0 2.67125334,0 L0,0 L0,0.89041778 L1.78083556,0.89041778 L2.44953931,6.62337266 C2.04217318,6.94971077 1.78083556,7.45101598 1.78083556,8.01376002 C1.78083556,8.99722646 2.57820468,9.79459558 3.56167112,9.79459558 L14.2466845,9.79459558 L14.2466845,8.9041778 L3.56167112,8.9041778 C3.0697153,8.9041778 2.67125334,8.50571585 2.67125334,8.01376002 L2.67125334,8.00485584 L14.2466845,6.23292446 L14.2466845,6.23292446 Z" id="Shape"></path>
                </g>
            </g>
            <g id="embed" transform="translate(32.000000, 2.000000)">
                <g id="Group">
                    <polygon id="Shape" points="7.56855113 7.56855113 8.9041778 8.9041778 13.3562667 4.4520889 8.9041778 0 7.56855113 1.33562667 10.6850134 4.4520889"></polygon>
                    <polygon id="Shape" points="5.78771557 1.33562667 4.4520889 0 0 4.4520889 4.4520889 8.9041778 5.78771557 7.56855113 2.67125334 4.4520889"></polygon>
                </g>
            </g>
            <g id="search">
                <path d="M14.2502462,12.5686922 L10.8755628,9.69843046 C10.526519,9.38455819 10.1534339,9.24031051 9.85202753,9.25411199 C10.6485062,8.32095416 11.129777,7.11043118 11.129777,5.78727036 C11.129777,2.83687105 8.73766968,0.444763681 5.78727036,0.444763681 C2.83687105,0.444763681 0.444763681,2.83687105 0.444763681,5.78727036 C0.444763681,8.73766968 2.83687105,11.129777 5.78727036,11.129777 C7.11043118,11.129777 8.32095416,10.6485062 9.25411199,9.85202753 C9.24031051,10.1534339 9.38455819,10.526519 9.69843046,10.8755628 L12.5686922,14.2502462 C13.0602028,14.7960723 13.8629144,14.842374 14.3526442,14.3526442 C14.842374,13.8629144 14.7965175,13.0602028 14.2502462,12.5686922 Z M5.78771557,9.34938669 C3.82078269,9.34938669 2.22604445,7.75464845 2.22604445,5.78771557 C2.22604445,3.82078269 3.82078269,2.22604445 5.78771557,2.22604445 C7.75464845,2.22604445 9.34938669,3.82078269 9.34938669,5.78771557 C9.34938669,7.75464845 7.75464845,9.34938669 5.78771557,9.34938669 Z" id="Shape"></path>
            </g>
        </g>
    </g>
</svg>